<svg xmlns="http://www.w3.org/2000/svg" xmlns:v="https://svgstorm.com"
viewBox = "0 0 460 460"
width="460"
height="460">
<g fill="None" fill-opacity="0.0" stroke="#000000" stroke-opacity="0.00" stroke-width="0.3"><path d="
M 0.00 460.00 
L 460.00 460.00
L 460.00 0.00
L 0.00 0.00
L 0.00 460.00
M 267.00 30.00 
C 270.03 30.18 272.82 31.75 274.00 32.00
C 283.06 32.85 291.16 34.63 299.00 38.00
C 301.50 38.65 303.37 36.78 304.00 40.00
C 304.49 40.07 305.00 40.00 305.00 40.00
C 309.67 39.24 311.28 42.56 314.00 44.00
C 319.00 45.65 322.58 47.24 327.00 50.00
C 330.67 51.39 332.46 49.63 334.00 54.00
C 334.43 54.17 335.00 54.00 335.00 54.00
C 339.96 54.97 348.16 58.77 350.00 64.00
C 350.36 64.22 351.00 64.00 351.00 64.00
C 363.81 66.51 370.97 79.70 381.10 87.90 C 391.23 96.10 398.19 107.91 405.71 118.29 C 413.22 128.68 419.72 142.49 424.00 155.00
C 427.99 162.48 430.67 171.12 432.00 180.00
C 432.48 181.61 434.10 183.45 434.00 187.00
C 433.97 187.94 433.87 189.07 434.00 190.00
C 435.10 192.15 435.77 193.16 436.00 197.00
C 437.10 215.35 438.00 234.03 438.00 253.00
C 438.00 256.29 437.56 259.39 437.00 262.00
C 435.38 269.55 432.75 276.77 432.00 285.00
C 431.17 294.14 428.28 301.64 424.00 309.00
C 419.85 319.97 414.94 333.80 408.01 343.01 C 401.08 352.22 394.52 363.61 386.10 371.10 C 377.68 378.59 369.76 391.47 359.00 394.00
C 358.80 394.27 358.23 394.72 358.00 395.00
C 356.15 397.22 354.14 399.80 351.00 400.00
C 350.50 400.03 350.00 400.00 350.00 400.00
C 348.89 403.16 347.65 402.62 345.00 404.00
C 343.33 405.24 341.87 406.08 340.00 407.00
C 338.04 408.32 337.11 408.90 335.00 410.00
C 301.62 432.90 254.62 436.87 211.00 436.00
C 208.37 435.95 205.98 435.40 204.00 435.00
C 201.42 434.71 198.77 434.28 196.00 434.00
C 191.85 433.57 189.73 433.18 186.00 432.00
C 182.74 431.32 181.96 431.00 180.00 430.00
C 179.07 429.86 177.94 429.98 177.00 430.00
C 173.74 430.09 173.45 428.49 172.00 428.00
C 154.51 424.41 137.71 416.51 122.90 408.10 C 108.09 399.68 96.04 389.53 84.10 376.90 C 72.15 364.27 59.79 354.13 52.10 338.90 C 44.40 323.68 33.27 307.59 32.00 289.00
C 31.65 283.81 29.84 279.11 29.00 274.00
C 25.17 274.79 26.30 271.48 26.00 269.00
C 25.69 266.42 26.00 263.60 26.00 261.00
C 26.00 260.50 26.00 260.00 26.00 260.00
C 21.75 258.86 24.10 244.45 24.00 239.00 C 23.90 233.55 23.06 220.92 24.00 215.00
C 23.47 208.32 27.79 199.43 28.33 192.33 C 28.87 185.23 31.89 176.86 34.00 170.00
C 33.71 166.36 29.62 162.16 33.99 156.99 C 38.35 151.82 37.84 153.84 41.11 146.11 C 44.38 138.37 49.70 130.21 53.90 122.90 C 58.10 115.59 64.39 109.03 69.10 102.10 C 73.80 95.16 79.84 88.87 85.90 82.90 C 91.96 76.93 89.84 81.09 95.90 74.90 C 101.96 68.71 110.39 65.29 117.01 60.01 C 123.63 54.73 132.59 50.70 139.89 46.89 C 147.20 43.09 145.12 44.70 152.00 42.00
C 159.04 38.77 164.87 37.46 172.00 36.00
C 173.28 35.57 173.87 33.92 177.00 34.00
C 177.94 34.02 179.07 34.14 180.00 34.00
C 181.78 33.09 182.32 31.54 186.00 32.00
C 186.49 32.06 187.53 32.11 188.00 32.00
C 190.06 29.42 192.08 30.15 196.00 30.00
C 198.94 29.89 201.25 29.31 204.00 29.00
C 206.01 28.59 208.40 28.05 211.00 28.00
C 229.93 27.62 248.78 28.91 267.00 30.00 Z"/>
</g>
<g fill="None" fill-opacity="0.0" stroke="#E4E6D9" stroke-opacity="0.15" stroke-width="0.3"><path d="
M 204.00 29.00 
C 206.18 28.76 209.46 28.15 211.00 28.00
C 208.40 28.05 206.01 28.59 204.00 29.00 Z"/>
</g>
<g fill="None" fill-opacity="0.0" stroke="#E9E1D6" stroke-opacity="1.00" stroke-width="0.3"><path d="
M 204.00 29.00 
C 201.25 29.31 198.94 29.89 196.00 30.00
C 193.83 30.37 190.53 31.41 188.00 32.00
C 187.53 32.11 186.49 32.06 186.00 32.00
C 184.43 32.45 181.93 33.71 180.00 34.00
C 179.07 34.14 177.94 34.02 177.00 34.00
C 175.65 34.31 173.75 35.64 172.00 36.00
C 164.87 37.46 159.04 38.77 153.00 42.00
C 126.94 55.91 101.05 68.93 80.25 92.25 C 59.45 115.57 42.87 141.18 34.00 170.00
C 31.89 176.86 28.87 185.23 28.33 192.33 C 27.79 199.43 23.47 208.32 24.00 215.00
C 24.00 215.05 24.93 216.43 25.00 217.00
C 26.75 217.77 33.45 214.21 37.00 215.00 C 40.55 215.79 45.69 215.96 49.00 217.00
C 58.77 218.75 66.73 222.19 76.07 225.93 C 85.41 229.66 93.19 230.97 103.01 234.99 C 112.82 239.02 102.16 251.86 103.00 261.00 C 103.84 270.14 101.69 285.88 105.00 295.00
C 79.39 287.20 54.65 275.65 28.00 271.00
C 28.20 271.81 28.84 272.14 29.00 273.00
C 29.09 273.48 29.00 274.00 29.00 274.00
C 29.84 279.11 31.65 283.81 32.00 289.00
C 32.01 289.06 33.00 289.00 33.00 289.00
C 34.54 284.63 47.19 289.52 52.02 290.98 C 56.86 292.43 65.48 295.25 71.02 296.98 C 76.57 298.70 82.68 302.46 88.25 304.75 C 93.81 307.05 100.60 309.30 106.00 312.00
C 111.61 314.81 116.96 317.75 122.00 321.00
C 178.17 357.24 232.92 398.94 295.00 423.00
C 287.38 428.77 276.71 429.61 265.98 431.98 C 255.24 434.34 242.68 434.29 231.00 435.00 C 219.32 435.71 206.45 433.03 195.00 432.00
C 195.24 432.22 195.85 433.94 196.00 434.00
C 198.77 434.28 201.42 434.71 204.00 435.00
C 206.18 435.24 209.46 435.85 211.00 436.00
C 254.62 436.87 301.62 432.90 335.00 410.00
C 336.77 408.78 337.98 407.99 340.00 407.00
C 341.87 406.08 343.33 405.24 345.00 404.00
C 346.65 402.78 348.11 401.17 350.00 400.00
C 350.00 400.00 350.50 400.03 351.00 400.00
C 352.84 397.18 355.25 396.34 358.00 395.00
C 358.23 394.72 358.80 394.27 359.00 394.00
C 366.84 383.58 380.16 375.34 389.00 365.00
C 377.53 376.47 365.60 388.92 352.00 397.00
C 345.93 400.60 340.18 404.63 334.00 408.00
C 318.98 416.19 307.32 415.38 293.75 406.25 C 280.19 397.11 265.72 397.88 253.31 388.69 C 240.89 379.51 227.16 377.17 219.00 365.00
C 282.38 354.53 334.35 312.54 395.00 295.00
C 397.25 294.17 399.07 292.64 402.00 292.00
C 409.20 290.43 415.50 288.14 423.00 287.00
C 425.75 286.26 427.28 284.60 431.00 285.00
C 431.49 285.05 432.00 285.00 432.00 285.00
C 432.75 276.77 435.38 269.55 437.00 262.00
C 437.11 260.12 436.08 258.11 436.00 257.00
C 432.56 277.31 408.60 273.11 392.33 279.33 C 376.05 285.54 359.93 290.95 344.75 298.75 C 329.58 306.56 315.72 312.79 300.77 320.77 C 285.82 328.75 269.45 334.02 254.00 341.00
C 250.63 342.52 246.85 343.97 243.00 345.00
C 248.36 338.34 256.27 331.22 263.00 325.00
C 279.88 301.36 287.56 264.33 267.00 240.00
C 266.05 238.87 264.47 238.64 264.00 237.00
C 263.39 234.88 279.68 234.20 284.00 233.00
C 292.24 230.70 299.29 226.07 307.08 222.08 C 314.87 218.10 321.55 213.90 329.23 209.23 C 336.91 204.56 344.18 201.28 352.74 197.74 C 361.30 194.20 371.89 192.12 382.00 193.00 C 392.11 193.88 396.76 200.08 405.75 204.25 C 414.73 208.43 417.37 214.33 428.25 216.75 C 439.12 219.18 437.00 232.05 437.00 243.00
C 437.00 246.29 436.71 249.73 437.00 253.00
C 437.46 252.86 438.00 253.00 438.00 253.00
C 438.00 234.03 437.10 215.35 436.00 197.00
C 435.63 195.08 434.32 192.34 434.00 190.00
C 433.87 189.07 433.97 187.94 434.00 187.00
C 433.57 184.98 432.37 182.48 432.00 180.00
C 430.67 171.12 427.99 162.48 424.00 155.00
C 417.90 143.57 411.87 131.20 405.08 119.92 C 398.29 108.64 388.16 100.29 380.25 89.75 C 372.34 79.22 357.65 74.21 351.00 64.00
C 351.00 64.00 350.36 64.22 350.00 64.00
C 345.80 61.39 337.53 58.06 335.00 54.00
C 335.00 54.00 334.43 54.17 334.00 54.00
C 331.43 52.99 329.12 51.33 327.00 50.00
C 322.58 47.24 319.00 45.65 314.00 44.00
C 310.93 42.99 307.39 42.05 305.00 40.00
C 305.00 40.00 304.49 40.07 304.00 40.00
C 302.05 39.73 300.50 38.65 299.00 38.00
C 291.16 34.63 283.06 32.85 274.00 32.00
C 271.91 31.80 268.69 30.29 267.00 30.00
C 248.78 28.91 229.93 27.62 211.00 28.00
C 209.46 28.15 206.18 28.76 204.00 29.00
M 250.00 169.00 
C 245.98 187.76 236.40 205.41 229.00 223.00
C 228.82 223.42 229.25 224.76 229.00 225.00
C 231.47 227.05 235.39 228.86 238.00 231.00
C 238.91 231.75 240.11 232.32 241.00 233.00
C 243.09 234.58 245.20 236.44 247.00 238.00
C 250.13 240.70 253.74 243.54 256.00 247.00
C 263.43 258.40 267.87 274.83 265.00 289.00 C 262.13 303.17 256.06 311.53 246.25 322.25 C 236.44 332.97 228.99 335.56 215.92 342.92 C 202.85 350.29 190.68 348.14 178.00 341.00
C 172.05 337.65 167.03 333.38 162.00 329.00
C 141.67 315.89 118.11 308.53 116.00 282.00
C 114.55 274.51 114.59 266.05 117.00 259.00
C 117.98 254.36 118.86 249.66 120.00 245.00
C 120.76 241.89 122.37 240.38 124.00 238.00
C 125.36 235.34 127.49 233.29 129.00 231.00
C 133.98 219.85 147.27 211.50 158.02 208.02 C 168.78 204.55 171.88 204.93 181.00 205.00 C 190.12 205.07 193.93 210.49 201.22 210.78 C 208.52 211.07 212.78 220.70 219.00 219.00
C 227.00 206.35 236.70 188.15 237.00 173.00
C 237.03 171.67 237.00 170.33 237.00 169.00
C 198.29 174.30 167.72 154.60 135.11 141.89 C 102.49 129.19 63.24 142.48 38.00 165.00
C 40.99 153.21 46.80 139.82 53.78 129.78 C 60.75 119.73 66.29 109.08 75.25 100.25 C 84.20 91.42 90.25 82.37 102.00 78.00
C 101.21 73.02 110.03 68.51 116.08 64.08 C 122.14 59.65 130.41 55.96 137.22 52.22 C 144.04 48.49 151.97 44.63 160.07 42.07 C 168.18 39.52 176.41 36.21 185.22 34.22 C 194.03 32.24 204.63 30.95 214.00 30.00 C 223.37 29.05 236.37 28.28 246.00 29.00 C 255.63 29.72 265.99 31.44 275.00 33.00 C 284.01 34.56 291.65 39.05 300.22 40.78 C 308.79 42.51 316.41 46.57 324.02 49.98 C 331.64 53.38 337.99 57.85 344.75 62.25 C 351.51 66.65 358.11 70.57 364.23 75.77 C 370.35 80.97 374.83 86.81 380.75 92.25 C 386.67 97.68 391.63 103.30 396.25 109.75 C 400.87 116.21 405.15 122.83 409.25 129.75 C 413.35 136.67 417.71 143.46 420.77 151.23 C 423.84 159.00 426.78 167.60 428.99 176.01 C 431.21 184.42 434.47 193.96 435.00 203.00
C 414.88 194.87 399.33 181.32 377.00 179.00 C 354.67 176.68 332.33 198.77 311.32 190.68 C 290.32 182.58 273.90 168.36 250.00 169.00 Z"/>
</g>
<g fill="None" fill-opacity="0.0" stroke="#B9D1C7" stroke-opacity="1.00" stroke-width="0.3"><path d="
M 237.00 169.00 
C 237.02 160.76 239.05 151.43 239.00 143.00 C 238.95 134.57 240.93 125.49 238.67 117.33 C 236.41 109.17 236.07 101.59 236.00 95.00
C 230.91 80.87 215.65 66.87 227.00 53.00
C 234.56 62.39 247.49 58.63 258.00 61.00
C 273.82 61.60 284.84 68.29 298.00 70.00
C 300.80 72.06 302.08 74.88 304.00 78.00
C 313.93 83.71 324.46 91.18 332.75 99.25 C 341.04 107.32 350.77 116.52 355.77 126.23 C 360.77 135.94 373.52 148.44 371.00 159.00
C 370.54 160.95 370.45 160.65 369.00 163.00
C 357.30 157.15 337.29 165.47 327.00 157.00
C 296.07 150.70 269.89 128.59 251.00 103.00
C 252.63 123.63 254.42 147.63 250.00 169.00
C 273.90 168.36 290.32 182.58 311.32 190.68 C 332.33 198.77 354.67 176.68 377.00 179.00 C 399.33 181.32 414.88 194.87 435.00 203.00
C 434.47 193.96 431.21 184.42 428.99 176.01 C 426.78 167.60 423.84 159.00 420.77 151.23 C 417.71 143.46 413.35 136.67 409.25 129.75 C 405.15 122.83 400.87 116.21 396.25 109.75 C 391.63 103.30 386.67 97.68 380.75 92.25 C 374.83 86.81 370.35 80.97 364.23 75.77 C 358.11 70.57 351.51 66.65 344.75 62.25 C 337.99 57.85 331.64 53.38 324.02 49.98 C 316.41 46.57 308.79 42.51 300.22 40.78 C 291.65 39.05 284.01 34.56 275.00 33.00 C 265.99 31.44 255.63 29.72 246.00 29.00 C 236.37 28.28 223.37 29.05 214.00 30.00 C 204.63 30.95 194.03 32.24 185.22 34.22 C 176.41 36.21 168.18 39.52 160.07 42.07 C 151.97 44.63 144.04 48.49 137.22 52.22 C 130.41 55.96 122.14 59.65 116.08 64.08 C 110.03 68.51 101.21 73.02 102.00 78.00
C 90.25 82.37 84.20 91.42 75.25 100.25 C 66.29 109.08 60.75 119.73 53.78 129.78 C 46.80 139.82 40.99 153.21 38.00 165.00
C 63.24 142.48 102.49 129.19 135.11 141.89 C 167.72 154.60 198.29 174.30 237.00 169.00 Z"/>
</g>
<g fill="None" fill-opacity="0.0" stroke="#E4E6D9" stroke-opacity="0.16" stroke-width="0.3"><path d="
M 188.00 32.00 
C 190.53 31.41 193.83 30.37 196.00 30.00
C 192.08 30.15 190.06 29.42 188.00 32.00 Z"/>
</g>
<g fill="None" fill-opacity="0.0" stroke="#E4E6D9" stroke-opacity="0.14" stroke-width="0.3"><path d="
M 274.00 32.00 
C 272.82 31.75 270.03 30.18 267.00 30.00
C 268.69 30.29 271.91 31.80 274.00 32.00 Z"/>
</g>
<g fill="None" fill-opacity="0.0" stroke="#E4E6D9" stroke-opacity="0.12" stroke-width="0.3"><path d="
M 180.00 34.00 
C 181.93 33.71 184.43 32.45 186.00 32.00
C 182.32 31.54 181.78 33.09 180.00 34.00 Z"/>
</g>
<g fill="None" fill-opacity="0.0" stroke="#E4E6D9" stroke-opacity="0.13" stroke-width="0.3"><path d="
M 172.00 36.00 
C 173.75 35.64 175.65 34.31 177.00 34.00
C 173.87 33.92 173.28 35.57 172.00 36.00 Z"/>
</g>
<g fill="None" fill-opacity="0.0" stroke="#E0F2E5" stroke-opacity="0.13" stroke-width="0.3"><path d="
M 304.00 40.00 
C 303.37 36.78 301.50 38.65 299.00 38.00
C 300.50 38.65 302.05 39.73 304.00 40.00 Z"/>
</g>
<g fill="None" fill-opacity="0.0" stroke="#E4E6D9" stroke-opacity="0.15" stroke-width="0.3"><path d="
M 314.00 44.00 
C 311.28 42.56 309.67 39.24 305.00 40.00
C 307.39 42.05 310.93 42.99 314.00 44.00 Z"/>
</g>
<g fill="None" fill-opacity="0.0" stroke="#E4E6D9" stroke-opacity="0.14" stroke-width="0.3"><path d="
M 34.00 170.00 
C 42.87 141.18 59.45 115.57 80.25 92.25 C 101.05 68.93 126.94 55.91 153.00 42.00
C 145.12 44.70 147.20 43.09 139.89 46.89 C 132.59 50.70 123.63 54.73 117.01 60.01 C 110.39 65.29 101.96 68.71 95.90 74.90 C 89.84 81.09 91.96 76.93 85.90 82.90 C 79.84 88.87 73.80 95.16 69.10 102.10 C 64.39 109.03 58.10 115.59 53.90 122.90 C 49.70 130.21 44.38 138.37 41.11 146.11 C 37.84 153.84 38.35 151.82 33.99 156.99 C 29.62 162.16 33.71 166.36 34.00 170.00 Z"/>
</g>
<g fill="None" fill-opacity="0.0" stroke="#E0F2E5" stroke-opacity="0.13" stroke-width="0.3"><path d="
M 334.00 54.00 
C 332.46 49.63 330.67 51.39 327.00 50.00
C 329.12 51.33 331.43 52.99 334.00 54.00 Z"/>
</g>
<g fill="None" fill-opacity="0.0" stroke="#2A4D04" stroke-opacity="1.00" stroke-width="0.3"><path d="
M 236.00 95.00 
C 245.01 120.02 241.75 147.92 237.00 173.00
C 236.70 188.15 227.00 206.35 219.00 219.00
C 215.99 223.76 212.45 228.49 209.00 233.00
C 208.39 233.79 208.35 236.00 208.00 237.00
C 203.51 237.28 200.14 233.07 199.00 229.00
C 198.96 228.50 198.94 227.49 199.00 227.00
C 197.97 226.44 196.10 227.43 195.00 227.00
C 194.13 230.77 197.87 233.20 197.00 237.00
C 201.44 242.29 208.89 245.84 215.00 249.00
C 216.75 249.07 223.90 246.75 224.00 245.00
C 223.50 245.05 223.00 245.00 223.00 245.00
C 219.76 245.60 215.79 245.07 216.00 241.00
C 220.43 239.00 221.83 232.77 225.00 229.00
C 226.33 226.31 227.53 224.89 229.00 223.00
C 236.40 205.41 245.98 187.76 250.00 169.00
C 254.42 147.63 252.63 123.63 251.00 103.00
C 269.89 128.59 296.07 150.70 327.00 157.00
C 333.83 158.39 340.83 159.00 348.00 159.00
C 351.67 159.00 355.33 159.00 359.00 159.00
C 361.73 159.00 368.70 157.69 371.00 159.00
C 373.52 148.44 360.77 135.94 355.77 126.23 C 350.77 116.52 341.04 107.32 332.75 99.25 C 324.46 91.18 313.93 83.71 304.00 78.00
C 290.09 70.00 273.17 64.25 258.00 61.00
C 247.49 58.63 234.56 62.39 227.00 53.00
C 215.65 66.87 230.91 80.87 236.00 95.00
M 221.00 225.00 
C 222.31 226.31 220.29 230.40 218.32 228.66 C 216.34 226.91 219.53 223.53 221.00 225.00
M 215.00 233.00 
C 216.56 239.97 209.73 234.19 215.00 233.00 Z"/>
</g>
<g fill="None" fill-opacity="0.0" stroke="#E4E6D9" stroke-opacity="0.12" stroke-width="0.3"><path d="
M 350.00 64.00 
C 348.16 58.77 339.96 54.97 335.00 54.00
C 337.53 58.06 345.80 61.39 350.00 64.00 Z"/>
</g>
<g fill="None" fill-opacity="0.0" stroke="#BFD8BA" stroke-opacity="1.00" stroke-width="0.3"><path d="
M 304.00 78.00 
C 302.08 74.88 300.80 72.06 298.00 70.00
C 284.84 68.29 273.82 61.60 258.00 61.00
C 273.17 64.25 290.09 70.00 304.00 78.00 Z"/>
</g>
<g fill="None" fill-opacity="0.0" stroke="#E4E6D9" stroke-opacity="0.13" stroke-width="0.3"><path d="
M 424.00 155.00 
C 419.72 142.49 413.22 128.68 405.71 118.29 C 398.19 107.91 391.23 96.10 381.10 87.90 C 370.97 79.70 363.81 66.51 351.00 64.00
C 357.65 74.21 372.34 79.22 380.25 89.75 C 388.16 100.29 398.29 108.64 405.08 119.92 C 411.87 131.20 417.90 143.57 424.00 155.00 Z"/>
</g>
<g fill="None" fill-opacity="0.0" stroke="#BFD8BA" stroke-opacity="1.00" stroke-width="0.3"><path d="
M 237.00 169.00 
C 237.00 170.33 237.03 171.67 237.00 173.00
C 241.75 147.92 245.01 120.02 236.00 95.00
C 236.07 101.59 236.41 109.17 238.67 117.33 C 240.93 125.49 238.95 134.57 239.00 143.00 C 239.05 151.43 237.02 160.76 237.00 169.00 Z"/>
</g>
<g fill="None" fill-opacity="0.0" stroke="#BFD8BA" stroke-opacity="1.00" stroke-width="0.3"><path d="
M 371.00 159.00 
C 368.70 157.69 361.73 159.00 359.00 159.00
C 355.54 159.33 351.39 159.33 348.00 159.00
C 340.83 159.00 333.83 158.39 327.00 157.00
C 337.29 165.47 357.30 157.15 369.00 163.00
C 370.45 160.65 370.54 160.95 371.00 159.00 Z"/>
</g>
<g fill="None" fill-opacity="0.0" stroke="#74845D" stroke-opacity="1.00" stroke-width="0.3"><path d="
M 359.00 159.00 
C 355.33 159.00 351.67 159.00 348.00 159.00
C 351.39 159.33 355.54 159.33 359.00 159.00 Z"/>
</g>
<g fill="None" fill-opacity="0.0" stroke="#E0F2E5" stroke-opacity="0.18" stroke-width="0.3"><path d="
M 434.00 187.00 
C 434.10 183.45 432.48 181.61 432.00 180.00
C 432.37 182.48 433.57 184.98 434.00 187.00 Z"/>
</g>
<g fill="None" fill-opacity="0.0" stroke="#E0F2E5" stroke-opacity="0.15" stroke-width="0.3"><path d="
M 436.00 197.00 
C 435.77 193.16 435.10 192.15 434.00 190.00
C 434.32 192.34 435.63 195.08 436.00 197.00 Z"/>
</g>
<g fill="None" fill-opacity="0.0" stroke="#7FB09A" stroke-opacity="1.00" stroke-width="0.3"><path d="
M 284.00 233.00 
C 282.59 233.57 280.65 235.69 279.00 236.00
C 280.93 236.08 282.71 236.77 284.00 237.00
C 311.03 238.03 330.14 253.74 357.01 255.99 C 383.88 258.24 411.29 246.87 437.00 243.00
C 437.00 232.05 439.12 219.18 428.25 216.75 C 417.37 214.33 414.73 208.43 405.75 204.25 C 396.76 200.08 392.11 193.88 382.00 193.00 C 371.89 192.12 361.30 194.20 352.74 197.74 C 344.18 201.28 336.91 204.56 329.23 209.23 C 321.55 213.90 314.87 218.10 307.08 222.08 C 299.29 226.07 292.24 230.70 284.00 233.00 Z"/>
</g>
<g fill="None" fill-opacity="0.0" stroke="#DB1730" stroke-opacity="1.00" stroke-width="0.3"><path d="
M 129.00 231.00 
C 127.31 234.78 125.50 236.81 123.00 240.00
C 122.22 241.52 120.46 243.70 120.00 245.00
C 118.86 249.66 117.98 254.36 117.00 259.00
C 115.52 266.04 115.41 274.56 116.00 282.00
C 118.11 308.53 141.67 315.89 162.00 329.00
C 164.06 330.33 165.97 331.69 168.00 333.00
C 168.06 333.00 177.30 328.80 182.00 329.00 C 186.70 329.20 189.57 323.32 196.00 323.00 C 202.44 322.68 201.64 319.27 209.25 315.25 C 216.85 311.22 225.50 304.55 231.25 297.25 C 236.99 289.95 243.60 279.91 245.98 270.98 C 248.35 262.04 253.12 246.45 247.00 239.00
C 244.34 237.89 242.92 234.76 241.00 233.00
C 240.11 232.32 238.91 231.75 238.00 231.00
C 235.75 229.68 232.03 228.60 230.00 227.00
C 229.70 229.41 220.49 236.91 219.00 241.00
C 218.15 244.41 223.81 241.48 223.00 245.00
C 223.00 245.00 223.50 245.05 224.00 245.00
C 226.31 244.78 228.68 245.16 231.00 245.00
C 233.09 253.71 217.64 252.27 215.00 249.00
C 208.89 245.84 201.44 242.29 197.00 237.00
C 193.07 232.31 192.96 225.29 197.00 221.00
C 200.23 220.65 198.57 225.11 199.00 227.00
C 198.94 227.49 198.96 228.50 199.00 229.00
C 201.43 233.27 205.12 235.79 209.00 233.00
C 212.45 228.49 215.99 223.76 219.00 219.00
C 212.78 220.70 208.52 211.07 201.22 210.78 C 193.93 210.49 190.12 205.07 181.00 205.00 C 171.88 204.93 168.78 204.55 158.02 208.02 C 147.27 211.50 133.98 219.85 129.00 231.00
M 159.00 229.00 
C 169.23 232.83 154.24 253.10 147.92 256.92 C 141.59 260.74 138.00 249.93 141.00 244.00
C 144.25 237.58 151.09 226.04 159.00 229.00
M 146.00 275.00 
C 146.16 290.41 124.84 273.03 137.00 269.00
C 141.23 267.60 145.95 270.57 146.00 275.00 Z"/>
</g>
<g fill="None" fill-opacity="0.0" stroke="#E0F2E5" stroke-opacity="0.25" stroke-width="0.3"><path d="
M 26.00 260.00 
C 26.00 258.33 26.00 256.67 26.00 255.00
C 26.00 254.50 26.00 253.50 26.00 253.00
C 21.78 243.08 26.36 228.05 25.00 217.00
C 24.93 216.43 24.00 215.05 24.00 215.00
C 23.06 220.92 23.90 233.55 24.00 239.00 C 24.10 244.45 21.75 258.86 26.00 260.00 Z"/>
</g>
<g fill="None" fill-opacity="0.0" stroke="#B9D1C7" stroke-opacity="1.00" stroke-width="0.3"><path d="
M 25.00 217.00 
C 26.36 228.05 21.78 243.08 26.00 253.00
C 26.00 242.87 25.90 233.17 26.00 223.00 C 26.10 212.83 41.88 215.72 49.00 217.00
C 45.69 215.96 40.55 215.79 37.00 215.00 C 33.45 214.21 26.75 217.77 25.00 217.00 Z"/>
</g>
<g fill="None" fill-opacity="0.0" stroke="#7FB09A" stroke-opacity="1.00" stroke-width="0.3"><path d="
M 26.00 253.00 
C 26.00 253.50 26.00 254.50 26.00 255.00
C 27.09 258.81 28.02 262.46 28.00 267.00
C 27.99 268.20 27.72 269.84 28.00 271.00
C 54.65 275.65 79.39 287.20 105.00 295.00
C 101.69 285.88 103.84 270.14 103.00 261.00 C 102.16 251.86 112.82 239.02 103.01 234.99 C 93.19 230.97 85.41 229.66 76.07 225.93 C 66.73 222.19 58.77 218.75 49.00 217.00
C 41.88 215.72 26.10 212.83 26.00 223.00 C 25.90 233.17 26.00 242.87 26.00 253.00 Z"/>
</g>
<g fill="None" fill-opacity="0.0" stroke="#79381A" stroke-opacity="1.00" stroke-width="0.3"><path d="
M 197.00 237.00 
C 197.87 233.20 194.13 230.77 195.00 227.00
C 196.10 227.43 197.97 226.44 199.00 227.00
C 198.57 225.11 200.23 220.65 197.00 221.00
C 192.96 225.29 193.07 232.31 197.00 237.00 Z"/>
</g>
<g fill="None" fill-opacity="0.0" stroke="#514313" stroke-opacity="1.00" stroke-width="0.3"><path d="
M 225.00 229.00 
C 226.28 227.21 227.66 226.27 229.00 225.00
C 229.25 224.76 228.82 223.42 229.00 223.00
C 227.53 224.89 226.33 226.31 225.00 229.00 Z"/>
</g>
<g fill="None" fill-opacity="0.0" stroke="#514313" stroke-opacity="1.00" stroke-width="0.3"><path d="
M 221.00 225.00 
C 219.53 223.53 216.34 226.91 218.32 228.66 C 220.29 230.40 222.31 226.31 221.00 225.00 Z"/>
</g>
<g fill="None" fill-opacity="0.0" stroke="#79381A" stroke-opacity="1.00" stroke-width="0.3"><path d="
M 225.00 229.00 
C 221.83 232.77 220.43 239.00 216.00 241.00
C 215.79 245.07 219.76 245.60 223.00 245.00
C 223.81 241.48 218.15 244.41 219.00 241.00
C 220.49 236.91 229.70 229.41 230.00 227.00
C 229.78 226.83 229.08 225.02 229.00 225.00
C 227.66 226.27 226.28 227.21 225.00 229.00 Z"/>
</g>
<g fill="None" fill-opacity="0.0" stroke="#CA9998" stroke-opacity="1.00" stroke-width="0.3"><path d="
M 230.00 227.00 
C 232.03 228.60 235.75 229.68 238.00 231.00
C 235.39 228.86 231.47 227.05 229.00 225.00
C 229.08 225.02 229.78 226.83 230.00 227.00 Z"/>
</g>
<g fill="None" fill-opacity="0.0" stroke="#EFC4C4" stroke-opacity="1.00" stroke-width="0.3"><path d="
M 141.00 244.00 
C 143.23 240.75 146.61 238.06 149.00 235.00
C 150.23 233.43 150.56 232.46 153.00 231.00
C 155.13 229.72 155.73 228.42 159.00 229.00
C 151.09 226.04 144.25 237.58 141.00 244.00 Z"/>
</g>
<g fill="None" fill-opacity="0.0" stroke="#E4E6D9" stroke-opacity="1.00" stroke-width="0.3"><path d="
M 153.00 231.00 
C 152.71 231.35 153.45 233.00 151.90 234.90 C 150.35 236.80 148.42 235.25 149.00 235.00
C 146.61 238.06 143.23 240.75 141.00 244.00
C 138.00 249.93 141.59 260.74 147.92 256.92 C 154.24 253.10 169.23 232.83 159.00 229.00
C 155.73 228.42 155.13 229.72 153.00 231.00 Z"/>
</g>
<g fill="None" fill-opacity="0.0" stroke="#79381A" stroke-opacity="1.00" stroke-width="0.3"><path d="
M 209.00 233.00 
C 205.12 235.79 201.43 233.27 199.00 229.00
C 200.14 233.07 203.51 237.28 208.00 237.00
C 208.35 236.00 208.39 233.79 209.00 233.00 Z"/>
</g>
<g fill="None" fill-opacity="0.0" stroke="#D1646E" stroke-opacity="1.00" stroke-width="0.3"><path d="
M 124.00 238.00 
C 123.65 238.69 123.34 239.33 123.00 240.00
C 125.50 236.81 127.31 234.78 129.00 231.00
C 127.49 233.29 125.36 235.34 124.00 238.00 Z"/>
</g>
<g fill="None" fill-opacity="0.0" stroke="#E0F2E5" stroke-opacity="1.00" stroke-width="0.3"><path d="
M 149.00 235.00 
C 148.42 235.25 150.35 236.80 151.90 234.90 C 153.45 233.00 152.71 231.35 153.00 231.00
C 150.56 232.46 150.23 233.43 149.00 235.00 Z"/>
</g>
<g fill="None" fill-opacity="0.0" stroke="#514313" stroke-opacity="1.00" stroke-width="0.3"><path d="
M 215.00 233.00 
C 209.73 234.19 216.56 239.97 215.00 233.00 Z"/>
</g>
<g fill="None" fill-opacity="0.0" stroke="#D1646E" stroke-opacity="1.00" stroke-width="0.3"><path d="
M 247.00 239.00 
C 246.77 238.84 247.00 238.00 247.00 238.00
C 245.20 236.44 243.09 234.58 241.00 233.00
C 242.92 234.76 244.34 237.89 247.00 239.00 Z"/>
</g>
<g fill="None" fill-opacity="0.0" stroke="#CCD3C6" stroke-opacity="1.00" stroke-width="0.3"><path d="
M 264.00 237.00 
C 268.06 235.35 274.19 235.81 279.00 236.00
C 280.65 235.69 282.59 233.57 284.00 233.00
C 279.68 234.20 263.39 234.88 264.00 237.00 Z"/>
</g>
<g fill="None" fill-opacity="0.0" stroke="#4F6046" stroke-opacity="1.00" stroke-width="0.3"><path d="
M 264.00 237.00 
C 264.47 238.64 266.05 238.87 267.00 240.00
C 266.51 238.83 265.32 238.22 265.00 237.00
C 271.33 237.00 277.67 237.00 284.00 237.00
C 282.71 236.77 280.93 236.08 279.00 236.00
C 274.19 235.81 268.06 235.35 264.00 237.00 Z"/>
</g>
<g fill="None" fill-opacity="0.0" stroke="#2A4D04" stroke-opacity="1.00" stroke-width="0.3"><path d="
M 267.00 240.00 
C 287.56 264.33 279.88 301.36 263.00 325.00
C 258.62 331.13 251.33 335.31 248.00 342.00
C 250.23 342.52 251.73 340.46 254.00 341.00
C 269.45 334.02 285.82 328.75 300.77 320.77 C 315.72 312.79 329.58 306.56 344.75 298.75 C 359.93 290.95 376.05 285.54 392.33 279.33 C 408.60 273.11 432.56 277.31 436.00 257.00
C 436.22 255.69 435.28 253.54 437.00 253.00
C 436.71 249.73 437.00 246.29 437.00 243.00
C 411.29 246.87 383.88 258.24 357.01 255.99 C 330.14 253.74 311.03 238.03 284.00 237.00
C 277.67 237.00 271.33 237.00 265.00 237.00
C 265.32 238.22 266.51 238.83 267.00 240.00 Z"/>
</g>
<g fill="None" fill-opacity="0.0" stroke="#EFC4C4" stroke-opacity="1.00" stroke-width="0.3"><path d="
M 120.00 245.00 
C 120.46 243.70 122.22 241.52 123.00 240.00
C 123.34 239.33 123.65 238.69 124.00 238.00
C 122.37 240.38 120.76 241.89 120.00 245.00 Z"/>
</g>
<g fill="None" fill-opacity="0.0" stroke="#CA9998" stroke-opacity="1.00" stroke-width="0.3"><path d="
M 247.00 239.00 
C 249.80 240.95 253.99 244.38 256.00 247.00
C 253.74 243.54 250.13 240.70 247.00 238.00
C 247.00 238.00 246.77 238.84 247.00 239.00 Z"/>
</g>
<g fill="None" fill-opacity="0.0" stroke="#7F1A27" stroke-opacity="1.00" stroke-width="0.3"><path d="
M 168.00 333.00 
C 171.73 335.40 174.63 338.42 178.00 341.00
C 190.68 348.14 202.85 350.29 215.92 342.92 C 228.99 335.56 236.44 332.97 246.25 322.25 C 256.06 311.53 262.13 303.17 265.00 289.00 C 267.87 274.83 263.43 258.40 256.00 247.00
C 253.99 244.38 249.80 240.95 247.00 239.00
C 253.12 246.45 248.35 262.04 245.98 270.98 C 243.60 279.91 236.99 289.95 231.25 297.25 C 225.50 304.55 216.85 311.22 209.25 315.25 C 201.64 319.27 202.44 322.68 196.00 323.00 C 189.57 323.32 186.70 329.20 182.00 329.00 C 177.30 328.80 168.06 333.00 168.00 333.00 Z"/>
</g>
<g fill="None" fill-opacity="0.0" stroke="#514313" stroke-opacity="1.00" stroke-width="0.3"><path d="
M 215.00 249.00 
C 217.64 252.27 233.09 253.71 231.00 245.00
C 228.68 245.16 226.31 244.78 224.00 245.00
C 223.90 246.75 216.75 249.07 215.00 249.00 Z"/>
</g>
<g fill="None" fill-opacity="0.0" stroke="#CCD3C6" stroke-opacity="0.42" stroke-width="0.3"><path d="
M 436.00 257.00 
C 436.08 258.11 437.11 260.12 437.00 262.00
C 437.56 259.39 438.00 256.29 438.00 253.00
C 438.00 253.00 437.46 252.86 437.00 253.00
C 435.28 253.54 436.22 255.69 436.00 257.00 Z"/>
</g>
<g fill="None" fill-opacity="0.0" stroke="#B9D1C7" stroke-opacity="1.00" stroke-width="0.3"><path d="
M 26.00 260.00 
C 26.00 260.00 26.00 260.50 26.00 261.00
C 26.62 262.32 27.83 265.70 28.00 267.00
C 28.02 262.46 27.09 258.81 26.00 255.00
C 26.00 256.67 26.00 258.33 26.00 260.00 Z"/>
</g>
<g fill="None" fill-opacity="0.0" stroke="#CA9998" stroke-opacity="1.00" stroke-width="0.3"><path d="
M 116.00 282.00 
C 115.41 274.56 115.52 266.04 117.00 259.00
C 114.59 266.05 114.55 274.51 116.00 282.00 Z"/>
</g>
<g fill="None" fill-opacity="0.0" stroke="#E0F2E5" stroke-opacity="0.35" stroke-width="0.3"><path d="
M 26.00 269.00 
C 26.35 270.40 27.69 272.06 29.00 273.00
C 28.84 272.14 28.20 271.81 28.00 271.00
C 27.72 269.84 27.99 268.20 28.00 267.00
C 27.83 265.70 26.62 262.32 26.00 261.00
C 26.00 263.60 25.69 266.42 26.00 269.00 Z"/>
</g>
<g fill="None" fill-opacity="0.0" stroke="#E4E6D9" stroke-opacity="0.11" stroke-width="0.3"><path d="
M 29.00 274.00 
C 29.00 274.00 29.09 273.48 29.00 273.00
C 27.69 272.06 26.35 270.40 26.00 269.00
C 26.30 271.48 25.17 274.79 29.00 274.00 Z"/>
</g>
<g fill="None" fill-opacity="0.0" stroke="#EFC4C4" stroke-opacity="1.00" stroke-width="0.3"><path d="
M 146.00 275.00 
C 145.70 278.45 140.79 281.14 138.00 279.00
C 137.50 278.98 137.00 279.00 137.00 279.00
C 135.68 277.73 135.12 270.32 137.00 269.00
C 124.84 273.03 146.16 290.41 146.00 275.00 Z"/>
</g>
<g fill="None" fill-opacity="0.0" stroke="#E9E1D6" stroke-opacity="1.00" stroke-width="0.3"><path d="
M 137.00 279.00 
C 136.70 275.71 135.81 269.47 141.00 271.00
C 138.07 273.90 140.36 276.05 142.00 279.00
C 140.67 279.00 139.33 279.00 138.00 279.00
C 140.79 281.14 145.70 278.45 146.00 275.00
C 145.95 270.57 141.23 267.60 137.00 269.00
C 135.12 270.32 135.68 277.73 137.00 279.00 Z"/>
</g>
<g fill="None" fill-opacity="0.0" stroke="#E0F2E5" stroke-opacity="1.00" stroke-width="0.3"><path d="
M 137.00 279.00 
C 137.00 279.00 137.50 278.98 138.00 279.00
C 139.33 279.00 140.67 279.00 142.00 279.00
C 140.36 276.05 138.07 273.90 141.00 271.00
C 135.81 269.47 136.70 275.71 137.00 279.00 Z"/>
</g>
<g fill="None" fill-opacity="0.0" stroke="#A4AB8D" stroke-opacity="1.00" stroke-width="0.3"><path d="
M 423.00 287.00 
C 425.28 286.65 427.46 285.45 430.00 286.00
C 429.07 287.14 428.92 288.55 429.00 290.00
C 429.60 288.53 430.44 286.78 431.00 285.00
C 427.28 284.60 425.75 286.26 423.00 287.00 Z"/>
</g>
<g fill="None" fill-opacity="0.0" stroke="#CCD3C6" stroke-opacity="0.85" stroke-width="0.3"><path d="
M 429.00 290.00 
C 418.22 316.58 406.64 339.28 389.00 363.00
C 383.91 369.84 376.52 376.65 370.00 382.00
C 368.76 383.02 367.14 383.97 366.00 385.00
C 361.51 389.05 356.69 393.33 352.00 397.00
C 365.60 388.92 377.53 376.47 389.00 365.00
C 403.99 347.46 412.85 328.18 424.00 309.00
C 428.28 301.64 431.17 294.14 432.00 285.00
C 432.00 285.00 431.49 285.05 431.00 285.00
C 430.44 286.78 429.60 288.53 429.00 290.00 Z"/>
</g>
<g fill="None" fill-opacity="0.0" stroke="#2A4D04" stroke-opacity="1.00" stroke-width="0.3"><path d="
M 423.00 287.00 
C 415.50 288.14 409.20 290.43 402.00 292.00
C 399.20 293.14 398.38 294.26 395.00 295.00
C 334.35 312.54 282.38 354.53 219.00 365.00
C 227.16 377.17 240.89 379.51 253.31 388.69 C 265.72 397.88 280.19 397.11 293.75 406.25 C 307.32 415.38 318.98 416.19 334.00 408.00
C 338.50 404.34 344.11 401.10 349.75 396.75 C 355.39 392.40 359.90 389.12 366.00 385.00
C 367.14 383.97 368.76 383.02 370.00 382.00
C 376.18 376.06 383.44 369.38 389.00 363.00
C 406.64 339.28 418.22 316.58 429.00 290.00
C 428.92 288.55 429.07 287.14 430.00 286.00
C 427.46 285.45 425.28 286.65 423.00 287.00 Z"/>
</g>
<g fill="None" fill-opacity="0.0" stroke="#2A4D04" stroke-opacity="1.00" stroke-width="0.3"><path d="
M 33.00 289.00 
C 46.07 323.81 62.30 355.98 92.25 381.75 C 122.20 407.52 156.48 425.23 195.00 432.00
C 206.45 433.03 219.32 435.71 231.00 435.00 C 242.68 434.29 255.24 434.34 265.98 431.98 C 276.71 429.61 287.38 428.77 295.00 423.00
C 232.92 398.94 178.17 357.24 122.00 321.00
C 116.23 318.48 111.16 315.40 106.00 312.00
C 100.60 309.30 93.81 307.05 88.25 304.75 C 82.68 302.46 76.57 298.70 71.02 296.98 C 65.48 295.25 56.86 292.43 52.02 290.98 C 47.19 289.52 34.54 284.63 33.00 289.00 Z"/>
</g>
<g fill="None" fill-opacity="0.0" stroke="#CCD3C6" stroke-opacity="0.54" stroke-width="0.3"><path d="
M 172.00 428.00 
C 173.69 428.35 175.73 429.71 177.00 430.00
C 177.94 429.98 179.07 429.86 180.00 430.00
C 181.92 430.29 184.47 431.52 186.00 432.00
C 189.73 433.18 191.85 433.57 196.00 434.00
C 195.85 433.94 195.24 432.22 195.00 432.00
C 156.48 425.23 122.20 407.52 92.25 381.75 C 62.30 355.98 46.07 323.81 33.00 289.00
C 33.00 289.00 32.01 289.06 32.00 289.00
C 33.27 307.59 44.40 323.68 52.10 338.90 C 59.79 354.13 72.15 364.27 84.10 376.90 C 96.04 389.53 108.09 399.68 122.90 408.10 C 137.71 416.51 154.51 424.41 172.00 428.00 Z"/>
</g>
<g fill="None" fill-opacity="0.0" stroke="#74845D" stroke-opacity="1.00" stroke-width="0.3"><path d="
M 395.00 295.00 
C 398.38 294.26 399.20 293.14 402.00 292.00
C 399.07 292.64 397.25 294.17 395.00 295.00 Z"/>
</g>
<g fill="None" fill-opacity="0.0" stroke="#E7F5D7" stroke-opacity="0.12" stroke-width="0.3"><path d="
M 389.00 365.00 
C 380.16 375.34 366.84 383.58 359.00 394.00
C 369.76 391.47 377.68 378.59 386.10 371.10 C 394.52 363.61 401.08 352.22 408.01 343.01 C 414.94 333.80 419.85 319.97 424.00 309.00
C 412.85 328.18 403.99 347.46 389.00 365.00 Z"/>
</g>
<g fill="None" fill-opacity="0.0" stroke="#74845D" stroke-opacity="1.00" stroke-width="0.3"><path d="
M 122.00 321.00 
C 116.96 317.75 111.61 314.81 106.00 312.00
C 111.16 315.40 116.23 318.48 122.00 321.00 Z"/>
</g>
<g fill="None" fill-opacity="0.0" stroke="#A4AB8D" stroke-opacity="1.00" stroke-width="0.3"><path d="
M 254.00 341.00 
C 251.73 340.46 250.23 342.52 248.00 342.00
C 251.33 335.31 258.62 331.13 263.00 325.00
C 256.27 331.22 248.36 338.34 243.00 345.00
C 246.85 343.97 250.63 342.52 254.00 341.00 Z"/>
</g>
<g fill="None" fill-opacity="0.0" stroke="#CA9998" stroke-opacity="1.00" stroke-width="0.3"><path d="
M 178.00 341.00 
C 174.63 338.42 171.73 335.40 168.00 333.00
C 165.97 331.69 164.06 330.33 162.00 329.00
C 167.03 333.38 172.05 337.65 178.00 341.00 Z"/>
</g>
<g fill="None" fill-opacity="0.0" stroke="#74845D" stroke-opacity="1.00" stroke-width="0.3"><path d="
M 370.00 382.00 
C 376.52 376.65 383.91 369.84 389.00 363.00
C 383.44 369.38 376.18 376.06 370.00 382.00 Z"/>
</g>
<g fill="None" fill-opacity="0.0" stroke="#74845D" stroke-opacity="1.00" stroke-width="0.3"><path d="
M 334.00 408.00 
C 340.18 404.63 345.93 400.60 352.00 397.00
C 356.69 393.33 361.51 389.05 366.00 385.00
C 359.90 389.12 355.39 392.40 349.75 396.75 C 344.11 401.10 338.50 404.34 334.00 408.00 Z"/>
</g>
<g fill="None" fill-opacity="0.0" stroke="#E4E6D9" stroke-opacity="0.09" stroke-width="0.3"><path d="
M 351.00 400.00 
C 354.14 399.80 356.15 397.22 358.00 395.00
C 355.25 396.34 352.84 397.18 351.00 400.00 Z"/>
</g>
<g fill="None" fill-opacity="0.0" stroke="#E7F5D7" stroke-opacity="0.09" stroke-width="0.3"><path d="
M 345.00 404.00 
C 347.65 402.62 348.89 403.16 350.00 400.00
C 348.11 401.17 346.65 402.78 345.00 404.00 Z"/>
</g>
<g fill="None" fill-opacity="0.0" stroke="#E4E6D9" stroke-opacity="0.09" stroke-width="0.3"><path d="
M 335.00 410.00 
C 337.11 408.90 338.04 408.32 340.00 407.00
C 337.98 407.99 336.77 408.78 335.00 410.00 Z"/>
</g>
<g fill="None" fill-opacity="0.0" stroke="#E7F5D7" stroke-opacity="0.13" stroke-width="0.3"><path d="
M 177.00 430.00 
C 175.73 429.71 173.69 428.35 172.00 428.00
C 173.45 428.49 173.74 430.09 177.00 430.00 Z"/>
</g>
<g fill="None" fill-opacity="0.0" stroke="#E7F5D7" stroke-opacity="0.12" stroke-width="0.3"><path d="
M 186.00 432.00 
C 184.47 431.52 181.92 430.29 180.00 430.00
C 181.96 431.00 182.74 431.32 186.00 432.00 Z"/>
</g>
<g fill="None" fill-opacity="0.0" stroke="#E7F5D7" stroke-opacity="0.15" stroke-width="0.3"><path d="
M 211.00 436.00 
C 209.46 435.85 206.18 435.24 204.00 435.00
C 205.98 435.40 208.37 435.95 211.00 436.00 Z"/>
</g>
<g fill="#000000" fill-opacity="0.00" stroke="None">
<path d="
M 0.00 460.00 
L 460.00 460.00
L 460.00 0.00
L 0.00 0.00
L 0.00 460.00
M 267.00 30.00 
C 270.03 30.18 272.82 31.75 274.00 32.00
C 283.06 32.85 291.16 34.63 299.00 38.00
C 301.50 38.65 303.37 36.78 304.00 40.00
C 304.49 40.07 305.00 40.00 305.00 40.00
C 309.67 39.24 311.28 42.56 314.00 44.00
C 319.00 45.65 322.58 47.24 327.00 50.00
C 330.67 51.39 332.46 49.63 334.00 54.00
C 334.43 54.17 335.00 54.00 335.00 54.00
C 339.96 54.97 348.16 58.77 350.00 64.00
C 350.36 64.22 351.00 64.00 351.00 64.00
C 363.81 66.51 370.97 79.70 381.10 87.90 C 391.23 96.10 398.19 107.91 405.71 118.29 C 413.22 128.68 419.72 142.49 424.00 155.00
C 427.99 162.48 430.67 171.12 432.00 180.00
C 432.48 181.61 434.10 183.45 434.00 187.00
C 433.97 187.94 433.87 189.07 434.00 190.00
C 435.10 192.15 435.77 193.16 436.00 197.00
C 437.10 215.35 438.00 234.03 438.00 253.00
C 438.00 256.29 437.56 259.39 437.00 262.00
C 435.38 269.55 432.75 276.77 432.00 285.00
C 431.17 294.14 428.28 301.64 424.00 309.00
C 419.85 319.97 414.94 333.80 408.01 343.01 C 401.08 352.22 394.52 363.61 386.10 371.10 C 377.68 378.59 369.76 391.47 359.00 394.00
C 358.80 394.27 358.23 394.72 358.00 395.00
C 356.15 397.22 354.14 399.80 351.00 400.00
C 350.50 400.03 350.00 400.00 350.00 400.00
C 348.89 403.16 347.65 402.62 345.00 404.00
C 343.33 405.24 341.87 406.08 340.00 407.00
C 338.04 408.32 337.11 408.90 335.00 410.00
C 301.62 432.90 254.62 436.87 211.00 436.00
C 208.37 435.95 205.98 435.40 204.00 435.00
C 201.42 434.71 198.77 434.28 196.00 434.00
C 191.85 433.57 189.73 433.18 186.00 432.00
C 182.74 431.32 181.96 431.00 180.00 430.00
C 179.07 429.86 177.94 429.98 177.00 430.00
C 173.74 430.09 173.45 428.49 172.00 428.00
C 154.51 424.41 137.71 416.51 122.90 408.10 C 108.09 399.68 96.04 389.53 84.10 376.90 C 72.15 364.27 59.79 354.13 52.10 338.90 C 44.40 323.68 33.27 307.59 32.00 289.00
C 31.65 283.81 29.84 279.11 29.00 274.00
C 25.17 274.79 26.30 271.48 26.00 269.00
C 25.69 266.42 26.00 263.60 26.00 261.00
C 26.00 260.50 26.00 260.00 26.00 260.00
C 21.75 258.86 24.10 244.45 24.00 239.00 C 23.90 233.55 23.06 220.92 24.00 215.00
C 23.47 208.32 27.79 199.43 28.33 192.33 C 28.87 185.23 31.89 176.86 34.00 170.00
C 33.71 166.36 29.62 162.16 33.99 156.99 C 38.35 151.82 37.84 153.84 41.11 146.11 C 44.38 138.37 49.70 130.21 53.90 122.90 C 58.10 115.59 64.39 109.03 69.10 102.10 C 73.80 95.16 79.84 88.87 85.90 82.90 C 91.96 76.93 89.84 81.09 95.90 74.90 C 101.96 68.71 110.39 65.29 117.01 60.01 C 123.63 54.73 132.59 50.70 139.89 46.89 C 147.20 43.09 145.12 44.70 152.00 42.00
C 159.04 38.77 164.87 37.46 172.00 36.00
C 173.28 35.57 173.87 33.92 177.00 34.00
C 177.94 34.02 179.07 34.14 180.00 34.00
C 181.78 33.09 182.32 31.54 186.00 32.00
C 186.49 32.06 187.53 32.11 188.00 32.00
C 190.06 29.42 192.08 30.15 196.00 30.00
C 198.94 29.89 201.25 29.31 204.00 29.00
C 206.01 28.59 208.40 28.05 211.00 28.00
C 229.93 27.62 248.78 28.91 267.00 30.00 Z"/>
</g>
<g fill="#E4E6D9" fill-opacity="0.15" stroke="None">
<path d="
M 204.00 29.00 
C 206.18 28.76 209.46 28.15 211.00 28.00
C 208.40 28.05 206.01 28.59 204.00 29.00 Z"/>
</g>
<g fill="#E9E1D6" fill-opacity="1.00" stroke="None">
<path d="
M 204.00 29.00 
C 201.25 29.31 198.94 29.89 196.00 30.00
C 193.83 30.37 190.53 31.41 188.00 32.00
C 187.53 32.11 186.49 32.06 186.00 32.00
C 184.43 32.45 181.93 33.71 180.00 34.00
C 179.07 34.14 177.94 34.02 177.00 34.00
C 175.65 34.31 173.75 35.64 172.00 36.00
C 164.87 37.46 159.04 38.77 153.00 42.00
C 126.94 55.91 101.05 68.93 80.25 92.25 C 59.45 115.57 42.87 141.18 34.00 170.00
C 31.89 176.86 28.87 185.23 28.33 192.33 C 27.79 199.43 23.47 208.32 24.00 215.00
C 24.00 215.05 24.93 216.43 25.00 217.00
C 26.75 217.77 33.45 214.21 37.00 215.00 C 40.55 215.79 45.69 215.96 49.00 217.00
C 58.77 218.75 66.73 222.19 76.07 225.93 C 85.41 229.66 93.19 230.97 103.01 234.99 C 112.82 239.02 102.16 251.86 103.00 261.00 C 103.84 270.14 101.69 285.88 105.00 295.00
C 79.39 287.20 54.65 275.65 28.00 271.00
C 28.20 271.81 28.84 272.14 29.00 273.00
C 29.09 273.48 29.00 274.00 29.00 274.00
C 29.84 279.11 31.65 283.81 32.00 289.00
C 32.01 289.06 33.00 289.00 33.00 289.00
C 34.54 284.63 47.19 289.52 52.02 290.98 C 56.86 292.43 65.48 295.25 71.02 296.98 C 76.57 298.70 82.68 302.46 88.25 304.75 C 93.81 307.05 100.60 309.30 106.00 312.00
C 111.61 314.81 116.96 317.75 122.00 321.00
C 178.17 357.24 232.92 398.94 295.00 423.00
C 287.38 428.77 276.71 429.61 265.98 431.98 C 255.24 434.34 242.68 434.29 231.00 435.00 C 219.32 435.71 206.45 433.03 195.00 432.00
C 195.24 432.22 195.85 433.94 196.00 434.00
C 198.77 434.28 201.42 434.71 204.00 435.00
C 206.18 435.24 209.46 435.85 211.00 436.00
C 254.62 436.87 301.62 432.90 335.00 410.00
C 336.77 408.78 337.98 407.99 340.00 407.00
C 341.87 406.08 343.33 405.24 345.00 404.00
C 346.65 402.78 348.11 401.17 350.00 400.00
C 350.00 400.00 350.50 400.03 351.00 400.00
C 352.84 397.18 355.25 396.34 358.00 395.00
C 358.23 394.72 358.80 394.27 359.00 394.00
C 366.84 383.58 380.16 375.34 389.00 365.00
C 377.53 376.47 365.60 388.92 352.00 397.00
C 345.93 400.60 340.18 404.63 334.00 408.00
C 318.98 416.19 307.32 415.38 293.75 406.25 C 280.19 397.11 265.72 397.88 253.31 388.69 C 240.89 379.51 227.16 377.17 219.00 365.00
C 282.38 354.53 334.35 312.54 395.00 295.00
C 397.25 294.17 399.07 292.64 402.00 292.00
C 409.20 290.43 415.50 288.14 423.00 287.00
C 425.75 286.26 427.28 284.60 431.00 285.00
C 431.49 285.05 432.00 285.00 432.00 285.00
C 432.75 276.77 435.38 269.55 437.00 262.00
C 437.11 260.12 436.08 258.11 436.00 257.00
C 432.56 277.31 408.60 273.11 392.33 279.33 C 376.05 285.54 359.93 290.95 344.75 298.75 C 329.58 306.56 315.72 312.79 300.77 320.77 C 285.82 328.75 269.45 334.02 254.00 341.00
C 250.63 342.52 246.85 343.97 243.00 345.00
C 248.36 338.34 256.27 331.22 263.00 325.00
C 279.88 301.36 287.56 264.33 267.00 240.00
C 266.05 238.87 264.47 238.64 264.00 237.00
C 263.39 234.88 279.68 234.20 284.00 233.00
C 292.24 230.70 299.29 226.07 307.08 222.08 C 314.87 218.10 321.55 213.90 329.23 209.23 C 336.91 204.56 344.18 201.28 352.74 197.74 C 361.30 194.20 371.89 192.12 382.00 193.00 C 392.11 193.88 396.76 200.08 405.75 204.25 C 414.73 208.43 417.37 214.33 428.25 216.75 C 439.12 219.18 437.00 232.05 437.00 243.00
C 437.00 246.29 436.71 249.73 437.00 253.00
C 437.46 252.86 438.00 253.00 438.00 253.00
C 438.00 234.03 437.10 215.35 436.00 197.00
C 435.63 195.08 434.32 192.34 434.00 190.00
C 433.87 189.07 433.97 187.94 434.00 187.00
C 433.57 184.98 432.37 182.48 432.00 180.00
C 430.67 171.12 427.99 162.48 424.00 155.00
C 417.90 143.57 411.87 131.20 405.08 119.92 C 398.29 108.64 388.16 100.29 380.25 89.75 C 372.34 79.22 357.65 74.21 351.00 64.00
C 351.00 64.00 350.36 64.22 350.00 64.00
C 345.80 61.39 337.53 58.06 335.00 54.00
C 335.00 54.00 334.43 54.17 334.00 54.00
C 331.43 52.99 329.12 51.33 327.00 50.00
C 322.58 47.24 319.00 45.65 314.00 44.00
C 310.93 42.99 307.39 42.05 305.00 40.00
C 305.00 40.00 304.49 40.07 304.00 40.00
C 302.05 39.73 300.50 38.65 299.00 38.00
C 291.16 34.63 283.06 32.85 274.00 32.00
C 271.91 31.80 268.69 30.29 267.00 30.00
C 248.78 28.91 229.93 27.62 211.00 28.00
C 209.46 28.15 206.18 28.76 204.00 29.00
M 250.00 169.00 
C 245.98 187.76 236.40 205.41 229.00 223.00
C 228.82 223.42 229.25 224.76 229.00 225.00
C 231.47 227.05 235.39 228.86 238.00 231.00
C 238.91 231.75 240.11 232.32 241.00 233.00
C 243.09 234.58 245.20 236.44 247.00 238.00
C 250.13 240.70 253.74 243.54 256.00 247.00
C 263.43 258.40 267.87 274.83 265.00 289.00 C 262.13 303.17 256.06 311.53 246.25 322.25 C 236.44 332.97 228.99 335.56 215.92 342.92 C 202.85 350.29 190.68 348.14 178.00 341.00
C 172.05 337.65 167.03 333.38 162.00 329.00
C 141.67 315.89 118.11 308.53 116.00 282.00
C 114.55 274.51 114.59 266.05 117.00 259.00
C 117.98 254.36 118.86 249.66 120.00 245.00
C 120.76 241.89 122.37 240.38 124.00 238.00
C 125.36 235.34 127.49 233.29 129.00 231.00
C 133.98 219.85 147.27 211.50 158.02 208.02 C 168.78 204.55 171.88 204.93 181.00 205.00 C 190.12 205.07 193.93 210.49 201.22 210.78 C 208.52 211.07 212.78 220.70 219.00 219.00
C 227.00 206.35 236.70 188.15 237.00 173.00
C 237.03 171.67 237.00 170.33 237.00 169.00
C 198.29 174.30 167.72 154.60 135.11 141.89 C 102.49 129.19 63.24 142.48 38.00 165.00
C 40.99 153.21 46.80 139.82 53.78 129.78 C 60.75 119.73 66.29 109.08 75.25 100.25 C 84.20 91.42 90.25 82.37 102.00 78.00
C 101.21 73.02 110.03 68.51 116.08 64.08 C 122.14 59.65 130.41 55.96 137.22 52.22 C 144.04 48.49 151.97 44.63 160.07 42.07 C 168.18 39.52 176.41 36.21 185.22 34.22 C 194.03 32.24 204.63 30.95 214.00 30.00 C 223.37 29.05 236.37 28.28 246.00 29.00 C 255.63 29.72 265.99 31.44 275.00 33.00 C 284.01 34.56 291.65 39.05 300.22 40.78 C 308.79 42.51 316.41 46.57 324.02 49.98 C 331.64 53.38 337.99 57.85 344.75 62.25 C 351.51 66.65 358.11 70.57 364.23 75.77 C 370.35 80.97 374.83 86.81 380.75 92.25 C 386.67 97.68 391.63 103.30 396.25 109.75 C 400.87 116.21 405.15 122.83 409.25 129.75 C 413.35 136.67 417.71 143.46 420.77 151.23 C 423.84 159.00 426.78 167.60 428.99 176.01 C 431.21 184.42 434.47 193.96 435.00 203.00
C 414.88 194.87 399.33 181.32 377.00 179.00 C 354.67 176.68 332.33 198.77 311.32 190.68 C 290.32 182.58 273.90 168.36 250.00 169.00 Z"/>
</g>
<g fill="#B9D1C7" fill-opacity="1.00" stroke="None">
<path d="
M 237.00 169.00 
C 237.02 160.76 239.05 151.43 239.00 143.00 C 238.95 134.57 240.93 125.49 238.67 117.33 C 236.41 109.17 236.07 101.59 236.00 95.00
C 230.91 80.87 215.65 66.87 227.00 53.00
C 234.56 62.39 247.49 58.63 258.00 61.00
C 273.82 61.60 284.84 68.29 298.00 70.00
C 300.80 72.06 302.08 74.88 304.00 78.00
C 313.93 83.71 324.46 91.18 332.75 99.25 C 341.04 107.32 350.77 116.52 355.77 126.23 C 360.77 135.94 373.52 148.44 371.00 159.00
C 370.54 160.95 370.45 160.65 369.00 163.00
C 357.30 157.15 337.29 165.47 327.00 157.00
C 296.07 150.70 269.89 128.59 251.00 103.00
C 252.63 123.63 254.42 147.63 250.00 169.00
C 273.90 168.36 290.32 182.58 311.32 190.68 C 332.33 198.77 354.67 176.68 377.00 179.00 C 399.33 181.32 414.88 194.87 435.00 203.00
C 434.47 193.96 431.21 184.42 428.99 176.01 C 426.78 167.60 423.84 159.00 420.77 151.23 C 417.71 143.46 413.35 136.67 409.25 129.75 C 405.15 122.83 400.87 116.21 396.25 109.75 C 391.63 103.30 386.67 97.68 380.75 92.25 C 374.83 86.81 370.35 80.97 364.23 75.77 C 358.11 70.57 351.51 66.65 344.75 62.25 C 337.99 57.85 331.64 53.38 324.02 49.98 C 316.41 46.57 308.79 42.51 300.22 40.78 C 291.65 39.05 284.01 34.56 275.00 33.00 C 265.99 31.44 255.63 29.72 246.00 29.00 C 236.37 28.28 223.37 29.05 214.00 30.00 C 204.63 30.95 194.03 32.24 185.22 34.22 C 176.41 36.21 168.18 39.52 160.07 42.07 C 151.97 44.63 144.04 48.49 137.22 52.22 C 130.41 55.96 122.14 59.65 116.08 64.08 C 110.03 68.51 101.21 73.02 102.00 78.00
C 90.25 82.37 84.20 91.42 75.25 100.25 C 66.29 109.08 60.75 119.73 53.78 129.78 C 46.80 139.82 40.99 153.21 38.00 165.00
C 63.24 142.48 102.49 129.19 135.11 141.89 C 167.72 154.60 198.29 174.30 237.00 169.00 Z"/>
</g>
<g fill="#E4E6D9" fill-opacity="0.16" stroke="None">
<path d="
M 188.00 32.00 
C 190.53 31.41 193.83 30.37 196.00 30.00
C 192.08 30.15 190.06 29.42 188.00 32.00 Z"/>
</g>
<g fill="#E4E6D9" fill-opacity="0.14" stroke="None">
<path d="
M 274.00 32.00 
C 272.82 31.75 270.03 30.18 267.00 30.00
C 268.69 30.29 271.91 31.80 274.00 32.00 Z"/>
</g>
<g fill="#E4E6D9" fill-opacity="0.12" stroke="None">
<path d="
M 180.00 34.00 
C 181.93 33.71 184.43 32.45 186.00 32.00
C 182.32 31.54 181.78 33.09 180.00 34.00 Z"/>
</g>
<g fill="#E4E6D9" fill-opacity="0.13" stroke="None">
<path d="
M 172.00 36.00 
C 173.75 35.64 175.65 34.31 177.00 34.00
C 173.87 33.92 173.28 35.57 172.00 36.00 Z"/>
</g>
<g fill="#E0F2E5" fill-opacity="0.13" stroke="None">
<path d="
M 304.00 40.00 
C 303.37 36.78 301.50 38.65 299.00 38.00
C 300.50 38.65 302.05 39.73 304.00 40.00 Z"/>
</g>
<g fill="#E4E6D9" fill-opacity="0.15" stroke="None">
<path d="
M 314.00 44.00 
C 311.28 42.56 309.67 39.24 305.00 40.00
C 307.39 42.05 310.93 42.99 314.00 44.00 Z"/>
</g>
<g fill="#E4E6D9" fill-opacity="0.14" stroke="None">
<path d="
M 34.00 170.00 
C 42.87 141.18 59.45 115.57 80.25 92.25 C 101.05 68.93 126.94 55.91 153.00 42.00
C 145.12 44.70 147.20 43.09 139.89 46.89 C 132.59 50.70 123.63 54.73 117.01 60.01 C 110.39 65.29 101.96 68.71 95.90 74.90 C 89.84 81.09 91.96 76.93 85.90 82.90 C 79.84 88.87 73.80 95.16 69.10 102.10 C 64.39 109.03 58.10 115.59 53.90 122.90 C 49.70 130.21 44.38 138.37 41.11 146.11 C 37.84 153.84 38.35 151.82 33.99 156.99 C 29.62 162.16 33.71 166.36 34.00 170.00 Z"/>
</g>
<g fill="#E0F2E5" fill-opacity="0.13" stroke="None">
<path d="
M 334.00 54.00 
C 332.46 49.63 330.67 51.39 327.00 50.00
C 329.12 51.33 331.43 52.99 334.00 54.00 Z"/>
</g>
<g fill="#2A4D04" fill-opacity="1.00" stroke="None">
<path d="
M 236.00 95.00 
C 245.01 120.02 241.75 147.92 237.00 173.00
C 236.70 188.15 227.00 206.35 219.00 219.00
C 215.99 223.76 212.45 228.49 209.00 233.00
C 208.39 233.79 208.35 236.00 208.00 237.00
C 203.51 237.28 200.14 233.07 199.00 229.00
C 198.96 228.50 198.94 227.49 199.00 227.00
C 197.97 226.44 196.10 227.43 195.00 227.00
C 194.13 230.77 197.87 233.20 197.00 237.00
C 201.44 242.29 208.89 245.84 215.00 249.00
C 216.75 249.07 223.90 246.75 224.00 245.00
C 223.50 245.05 223.00 245.00 223.00 245.00
C 219.76 245.60 215.79 245.07 216.00 241.00
C 220.43 239.00 221.83 232.77 225.00 229.00
C 226.33 226.31 227.53 224.89 229.00 223.00
C 236.40 205.41 245.98 187.76 250.00 169.00
C 254.42 147.63 252.63 123.63 251.00 103.00
C 269.89 128.59 296.07 150.70 327.00 157.00
C 333.83 158.39 340.83 159.00 348.00 159.00
C 351.67 159.00 355.33 159.00 359.00 159.00
C 361.73 159.00 368.70 157.69 371.00 159.00
C 373.52 148.44 360.77 135.94 355.77 126.23 C 350.77 116.52 341.04 107.32 332.75 99.25 C 324.46 91.18 313.93 83.71 304.00 78.00
C 290.09 70.00 273.17 64.25 258.00 61.00
C 247.49 58.63 234.56 62.39 227.00 53.00
C 215.65 66.87 230.91 80.87 236.00 95.00
M 221.00 225.00 
C 222.31 226.31 220.29 230.40 218.32 228.66 C 216.34 226.91 219.53 223.53 221.00 225.00
M 215.00 233.00 
C 216.56 239.97 209.73 234.19 215.00 233.00 Z"/>
</g>
<g fill="#E4E6D9" fill-opacity="0.12" stroke="None">
<path d="
M 350.00 64.00 
C 348.16 58.77 339.96 54.97 335.00 54.00
C 337.53 58.06 345.80 61.39 350.00 64.00 Z"/>
</g>
<g fill="#BFD8BA" fill-opacity="1.00" stroke="None">
<path d="
M 304.00 78.00 
C 302.08 74.88 300.80 72.06 298.00 70.00
C 284.84 68.29 273.82 61.60 258.00 61.00
C 273.17 64.25 290.09 70.00 304.00 78.00 Z"/>
</g>
<g fill="#E4E6D9" fill-opacity="0.13" stroke="None">
<path d="
M 424.00 155.00 
C 419.72 142.49 413.22 128.68 405.71 118.29 C 398.19 107.91 391.23 96.10 381.10 87.90 C 370.97 79.70 363.81 66.51 351.00 64.00
C 357.65 74.21 372.34 79.22 380.25 89.75 C 388.16 100.29 398.29 108.64 405.08 119.92 C 411.87 131.20 417.90 143.57 424.00 155.00 Z"/>
</g>
<g fill="#BFD8BA" fill-opacity="1.00" stroke="None">
<path d="
M 237.00 169.00 
C 237.00 170.33 237.03 171.67 237.00 173.00
C 241.75 147.92 245.01 120.02 236.00 95.00
C 236.07 101.59 236.41 109.17 238.67 117.33 C 240.93 125.49 238.95 134.57 239.00 143.00 C 239.05 151.43 237.02 160.76 237.00 169.00 Z"/>
</g>
<g fill="#BFD8BA" fill-opacity="1.00" stroke="None">
<path d="
M 371.00 159.00 
C 368.70 157.69 361.73 159.00 359.00 159.00
C 355.54 159.33 351.39 159.33 348.00 159.00
C 340.83 159.00 333.83 158.39 327.00 157.00
C 337.29 165.47 357.30 157.15 369.00 163.00
C 370.45 160.65 370.54 160.95 371.00 159.00 Z"/>
</g>
<g fill="#74845D" fill-opacity="1.00" stroke="None">
<path d="
M 359.00 159.00 
C 355.33 159.00 351.67 159.00 348.00 159.00
C 351.39 159.33 355.54 159.33 359.00 159.00 Z"/>
</g>
<g fill="#E0F2E5" fill-opacity="0.18" stroke="None">
<path d="
M 434.00 187.00 
C 434.10 183.45 432.48 181.61 432.00 180.00
C 432.37 182.48 433.57 184.98 434.00 187.00 Z"/>
</g>
<g fill="#E0F2E5" fill-opacity="0.15" stroke="None">
<path d="
M 436.00 197.00 
C 435.77 193.16 435.10 192.15 434.00 190.00
C 434.32 192.34 435.63 195.08 436.00 197.00 Z"/>
</g>
<g fill="#7FB09A" fill-opacity="1.00" stroke="None">
<path d="
M 284.00 233.00 
C 282.59 233.57 280.65 235.69 279.00 236.00
C 280.93 236.08 282.71 236.77 284.00 237.00
C 311.03 238.03 330.14 253.74 357.01 255.99 C 383.88 258.24 411.29 246.87 437.00 243.00
C 437.00 232.05 439.12 219.18 428.25 216.75 C 417.37 214.33 414.73 208.43 405.75 204.25 C 396.76 200.08 392.11 193.88 382.00 193.00 C 371.89 192.12 361.30 194.20 352.74 197.74 C 344.18 201.28 336.91 204.56 329.23 209.23 C 321.55 213.90 314.87 218.10 307.08 222.08 C 299.29 226.07 292.24 230.70 284.00 233.00 Z"/>
</g>
<g fill="#DB1730" fill-opacity="1.00" stroke="None">
<path d="
M 129.00 231.00 
C 127.31 234.78 125.50 236.81 123.00 240.00
C 122.22 241.52 120.46 243.70 120.00 245.00
C 118.86 249.66 117.98 254.36 117.00 259.00
C 115.52 266.04 115.41 274.56 116.00 282.00
C 118.11 308.53 141.67 315.89 162.00 329.00
C 164.06 330.33 165.97 331.69 168.00 333.00
C 168.06 333.00 177.30 328.80 182.00 329.00 C 186.70 329.20 189.57 323.32 196.00 323.00 C 202.44 322.68 201.64 319.27 209.25 315.25 C 216.85 311.22 225.50 304.55 231.25 297.25 C 236.99 289.95 243.60 279.91 245.98 270.98 C 248.35 262.04 253.12 246.45 247.00 239.00
C 244.34 237.89 242.92 234.76 241.00 233.00
C 240.11 232.32 238.91 231.75 238.00 231.00
C 235.75 229.68 232.03 228.60 230.00 227.00
C 229.70 229.41 220.49 236.91 219.00 241.00
C 218.15 244.41 223.81 241.48 223.00 245.00
C 223.00 245.00 223.50 245.05 224.00 245.00
C 226.31 244.78 228.68 245.16 231.00 245.00
C 233.09 253.71 217.64 252.27 215.00 249.00
C 208.89 245.84 201.44 242.29 197.00 237.00
C 193.07 232.31 192.96 225.29 197.00 221.00
C 200.23 220.65 198.57 225.11 199.00 227.00
C 198.94 227.49 198.96 228.50 199.00 229.00
C 201.43 233.27 205.12 235.79 209.00 233.00
C 212.45 228.49 215.99 223.76 219.00 219.00
C 212.78 220.70 208.52 211.07 201.22 210.78 C 193.93 210.49 190.12 205.07 181.00 205.00 C 171.88 204.93 168.78 204.55 158.02 208.02 C 147.27 211.50 133.98 219.85 129.00 231.00
M 159.00 229.00 
C 169.23 232.83 154.24 253.10 147.92 256.92 C 141.59 260.74 138.00 249.93 141.00 244.00
C 144.25 237.58 151.09 226.04 159.00 229.00
M 146.00 275.00 
C 146.16 290.41 124.84 273.03 137.00 269.00
C 141.23 267.60 145.95 270.57 146.00 275.00 Z"/>
</g>
<g fill="#E0F2E5" fill-opacity="0.25" stroke="None">
<path d="
M 26.00 260.00 
C 26.00 258.33 26.00 256.67 26.00 255.00
C 26.00 254.50 26.00 253.50 26.00 253.00
C 21.78 243.08 26.36 228.05 25.00 217.00
C 24.93 216.43 24.00 215.05 24.00 215.00
C 23.06 220.92 23.90 233.55 24.00 239.00 C 24.10 244.45 21.75 258.86 26.00 260.00 Z"/>
</g>
<g fill="#B9D1C7" fill-opacity="1.00" stroke="None">
<path d="
M 25.00 217.00 
C 26.36 228.05 21.78 243.08 26.00 253.00
C 26.00 242.87 25.90 233.17 26.00 223.00 C 26.10 212.83 41.88 215.72 49.00 217.00
C 45.69 215.96 40.55 215.79 37.00 215.00 C 33.45 214.21 26.75 217.77 25.00 217.00 Z"/>
</g>
<g fill="#7FB09A" fill-opacity="1.00" stroke="None">
<path d="
M 26.00 253.00 
C 26.00 253.50 26.00 254.50 26.00 255.00
C 27.09 258.81 28.02 262.46 28.00 267.00
C 27.99 268.20 27.72 269.84 28.00 271.00
C 54.65 275.65 79.39 287.20 105.00 295.00
C 101.69 285.88 103.84 270.14 103.00 261.00 C 102.16 251.86 112.82 239.02 103.01 234.99 C 93.19 230.97 85.41 229.66 76.07 225.93 C 66.73 222.19 58.77 218.75 49.00 217.00
C 41.88 215.72 26.10 212.83 26.00 223.00 C 25.90 233.17 26.00 242.87 26.00 253.00 Z"/>
</g>
<g fill="#79381A" fill-opacity="1.00" stroke="None">
<path d="
M 197.00 237.00 
C 197.87 233.20 194.13 230.77 195.00 227.00
C 196.10 227.43 197.97 226.44 199.00 227.00
C 198.57 225.11 200.23 220.65 197.00 221.00
C 192.96 225.29 193.07 232.31 197.00 237.00 Z"/>
</g>
<g fill="#514313" fill-opacity="1.00" stroke="None">
<path d="
M 225.00 229.00 
C 226.28 227.21 227.66 226.27 229.00 225.00
C 229.25 224.76 228.82 223.42 229.00 223.00
C 227.53 224.89 226.33 226.31 225.00 229.00 Z"/>
</g>
<g fill="#514313" fill-opacity="1.00" stroke="None">
<path d="
M 221.00 225.00 
C 219.53 223.53 216.34 226.91 218.32 228.66 C 220.29 230.40 222.31 226.31 221.00 225.00 Z"/>
</g>
<g fill="#79381A" fill-opacity="1.00" stroke="None">
<path d="
M 225.00 229.00 
C 221.83 232.77 220.43 239.00 216.00 241.00
C 215.79 245.07 219.76 245.60 223.00 245.00
C 223.81 241.48 218.15 244.41 219.00 241.00
C 220.49 236.91 229.70 229.41 230.00 227.00
C 229.78 226.83 229.08 225.02 229.00 225.00
C 227.66 226.27 226.28 227.21 225.00 229.00 Z"/>
</g>
<g fill="#CA9998" fill-opacity="1.00" stroke="None">
<path d="
M 230.00 227.00 
C 232.03 228.60 235.75 229.68 238.00 231.00
C 235.39 228.86 231.47 227.05 229.00 225.00
C 229.08 225.02 229.78 226.83 230.00 227.00 Z"/>
</g>
<g fill="#EFC4C4" fill-opacity="1.00" stroke="None">
<path d="
M 141.00 244.00 
C 143.23 240.75 146.61 238.06 149.00 235.00
C 150.23 233.43 150.56 232.46 153.00 231.00
C 155.13 229.72 155.73 228.42 159.00 229.00
C 151.09 226.04 144.25 237.58 141.00 244.00 Z"/>
</g>
<g fill="#E4E6D9" fill-opacity="1.00" stroke="None">
<path d="
M 153.00 231.00 
C 152.71 231.35 153.45 233.00 151.90 234.90 C 150.35 236.80 148.42 235.25 149.00 235.00
C 146.61 238.06 143.23 240.75 141.00 244.00
C 138.00 249.93 141.59 260.74 147.92 256.92 C 154.24 253.10 169.23 232.83 159.00 229.00
C 155.73 228.42 155.13 229.72 153.00 231.00 Z"/>
</g>
<g fill="#79381A" fill-opacity="1.00" stroke="None">
<path d="
M 209.00 233.00 
C 205.12 235.79 201.43 233.27 199.00 229.00
C 200.14 233.07 203.51 237.28 208.00 237.00
C 208.35 236.00 208.39 233.79 209.00 233.00 Z"/>
</g>
<g fill="#D1646E" fill-opacity="1.00" stroke="None">
<path d="
M 124.00 238.00 
C 123.65 238.69 123.34 239.33 123.00 240.00
C 125.50 236.81 127.31 234.78 129.00 231.00
C 127.49 233.29 125.36 235.34 124.00 238.00 Z"/>
</g>
<g fill="#E0F2E5" fill-opacity="1.00" stroke="None">
<path d="
M 149.00 235.00 
C 148.42 235.25 150.35 236.80 151.90 234.90 C 153.45 233.00 152.71 231.35 153.00 231.00
C 150.56 232.46 150.23 233.43 149.00 235.00 Z"/>
</g>
<g fill="#514313" fill-opacity="1.00" stroke="None">
<path d="
M 215.00 233.00 
C 209.73 234.19 216.56 239.97 215.00 233.00 Z"/>
</g>
<g fill="#D1646E" fill-opacity="1.00" stroke="None">
<path d="
M 247.00 239.00 
C 246.77 238.84 247.00 238.00 247.00 238.00
C 245.20 236.44 243.09 234.58 241.00 233.00
C 242.92 234.76 244.34 237.89 247.00 239.00 Z"/>
</g>
<g fill="#CCD3C6" fill-opacity="1.00" stroke="None">
<path d="
M 264.00 237.00 
C 268.06 235.35 274.19 235.81 279.00 236.00
C 280.65 235.69 282.59 233.57 284.00 233.00
C 279.68 234.20 263.39 234.88 264.00 237.00 Z"/>
</g>
<g fill="#4F6046" fill-opacity="1.00" stroke="None">
<path d="
M 264.00 237.00 
C 264.47 238.64 266.05 238.87 267.00 240.00
C 266.51 238.83 265.32 238.22 265.00 237.00
C 271.33 237.00 277.67 237.00 284.00 237.00
C 282.71 236.77 280.93 236.08 279.00 236.00
C 274.19 235.81 268.06 235.35 264.00 237.00 Z"/>
</g>
<g fill="#2A4D04" fill-opacity="1.00" stroke="None">
<path d="
M 267.00 240.00 
C 287.56 264.33 279.88 301.36 263.00 325.00
C 258.62 331.13 251.33 335.31 248.00 342.00
C 250.23 342.52 251.73 340.46 254.00 341.00
C 269.45 334.02 285.82 328.75 300.77 320.77 C 315.72 312.79 329.58 306.56 344.75 298.75 C 359.93 290.95 376.05 285.54 392.33 279.33 C 408.60 273.11 432.56 277.31 436.00 257.00
C 436.22 255.69 435.28 253.54 437.00 253.00
C 436.71 249.73 437.00 246.29 437.00 243.00
C 411.29 246.87 383.88 258.24 357.01 255.99 C 330.14 253.74 311.03 238.03 284.00 237.00
C 277.67 237.00 271.33 237.00 265.00 237.00
C 265.32 238.22 266.51 238.83 267.00 240.00 Z"/>
</g>
<g fill="#EFC4C4" fill-opacity="1.00" stroke="None">
<path d="
M 120.00 245.00 
C 120.46 243.70 122.22 241.52 123.00 240.00
C 123.34 239.33 123.65 238.69 124.00 238.00
C 122.37 240.38 120.76 241.89 120.00 245.00 Z"/>
</g>
<g fill="#CA9998" fill-opacity="1.00" stroke="None">
<path d="
M 247.00 239.00 
C 249.80 240.95 253.99 244.38 256.00 247.00
C 253.74 243.54 250.13 240.70 247.00 238.00
C 247.00 238.00 246.77 238.84 247.00 239.00 Z"/>
</g>
<g fill="#7F1A27" fill-opacity="1.00" stroke="None">
<path d="
M 168.00 333.00 
C 171.73 335.40 174.63 338.42 178.00 341.00
C 190.68 348.14 202.85 350.29 215.92 342.92 C 228.99 335.56 236.44 332.97 246.25 322.25 C 256.06 311.53 262.13 303.17 265.00 289.00 C 267.87 274.83 263.43 258.40 256.00 247.00
C 253.99 244.38 249.80 240.95 247.00 239.00
C 253.12 246.45 248.35 262.04 245.98 270.98 C 243.60 279.91 236.99 289.95 231.25 297.25 C 225.50 304.55 216.85 311.22 209.25 315.25 C 201.64 319.27 202.44 322.68 196.00 323.00 C 189.57 323.32 186.70 329.20 182.00 329.00 C 177.30 328.80 168.06 333.00 168.00 333.00 Z"/>
</g>
<g fill="#514313" fill-opacity="1.00" stroke="None">
<path d="
M 215.00 249.00 
C 217.64 252.27 233.09 253.71 231.00 245.00
C 228.68 245.16 226.31 244.78 224.00 245.00
C 223.90 246.75 216.75 249.07 215.00 249.00 Z"/>
</g>
<g fill="#CCD3C6" fill-opacity="0.42" stroke="None">
<path d="
M 436.00 257.00 
C 436.08 258.11 437.11 260.12 437.00 262.00
C 437.56 259.39 438.00 256.29 438.00 253.00
C 438.00 253.00 437.46 252.86 437.00 253.00
C 435.28 253.54 436.22 255.69 436.00 257.00 Z"/>
</g>
<g fill="#B9D1C7" fill-opacity="1.00" stroke="None">
<path d="
M 26.00 260.00 
C 26.00 260.00 26.00 260.50 26.00 261.00
C 26.62 262.32 27.83 265.70 28.00 267.00
C 28.02 262.46 27.09 258.81 26.00 255.00
C 26.00 256.67 26.00 258.33 26.00 260.00 Z"/>
</g>
<g fill="#CA9998" fill-opacity="1.00" stroke="None">
<path d="
M 116.00 282.00 
C 115.41 274.56 115.52 266.04 117.00 259.00
C 114.59 266.05 114.55 274.51 116.00 282.00 Z"/>
</g>
<g fill="#E0F2E5" fill-opacity="0.35" stroke="None">
<path d="
M 26.00 269.00 
C 26.35 270.40 27.69 272.06 29.00 273.00
C 28.84 272.14 28.20 271.81 28.00 271.00
C 27.72 269.84 27.99 268.20 28.00 267.00
C 27.83 265.70 26.62 262.32 26.00 261.00
C 26.00 263.60 25.69 266.42 26.00 269.00 Z"/>
</g>
<g fill="#E4E6D9" fill-opacity="0.11" stroke="None">
<path d="
M 29.00 274.00 
C 29.00 274.00 29.09 273.48 29.00 273.00
C 27.69 272.06 26.35 270.40 26.00 269.00
C 26.30 271.48 25.17 274.79 29.00 274.00 Z"/>
</g>
<g fill="#EFC4C4" fill-opacity="1.00" stroke="None">
<path d="
M 146.00 275.00 
C 145.70 278.45 140.79 281.14 138.00 279.00
C 137.50 278.98 137.00 279.00 137.00 279.00
C 135.68 277.73 135.12 270.32 137.00 269.00
C 124.84 273.03 146.16 290.41 146.00 275.00 Z"/>
</g>
<g fill="#E9E1D6" fill-opacity="1.00" stroke="None">
<path d="
M 137.00 279.00 
C 136.70 275.71 135.81 269.47 141.00 271.00
C 138.07 273.90 140.36 276.05 142.00 279.00
C 140.67 279.00 139.33 279.00 138.00 279.00
C 140.79 281.14 145.70 278.45 146.00 275.00
C 145.95 270.57 141.23 267.60 137.00 269.00
C 135.12 270.32 135.68 277.73 137.00 279.00 Z"/>
</g>
<g fill="#E0F2E5" fill-opacity="1.00" stroke="None">
<path d="
M 137.00 279.00 
C 137.00 279.00 137.50 278.98 138.00 279.00
C 139.33 279.00 140.67 279.00 142.00 279.00
C 140.36 276.05 138.07 273.90 141.00 271.00
C 135.81 269.47 136.70 275.71 137.00 279.00 Z"/>
</g>
<g fill="#A4AB8D" fill-opacity="1.00" stroke="None">
<path d="
M 423.00 287.00 
C 425.28 286.65 427.46 285.45 430.00 286.00
C 429.07 287.14 428.92 288.55 429.00 290.00
C 429.60 288.53 430.44 286.78 431.00 285.00
C 427.28 284.60 425.75 286.26 423.00 287.00 Z"/>
</g>
<g fill="#CCD3C6" fill-opacity="0.85" stroke="None">
<path d="
M 429.00 290.00 
C 418.22 316.58 406.64 339.28 389.00 363.00
C 383.91 369.84 376.52 376.65 370.00 382.00
C 368.76 383.02 367.14 383.97 366.00 385.00
C 361.51 389.05 356.69 393.33 352.00 397.00
C 365.60 388.92 377.53 376.47 389.00 365.00
C 403.99 347.46 412.85 328.18 424.00 309.00
C 428.28 301.64 431.17 294.14 432.00 285.00
C 432.00 285.00 431.49 285.05 431.00 285.00
C 430.44 286.78 429.60 288.53 429.00 290.00 Z"/>
</g>
<g fill="#2A4D04" fill-opacity="1.00" stroke="None">
<path d="
M 423.00 287.00 
C 415.50 288.14 409.20 290.43 402.00 292.00
C 399.20 293.14 398.38 294.26 395.00 295.00
C 334.35 312.54 282.38 354.53 219.00 365.00
C 227.16 377.17 240.89 379.51 253.31 388.69 C 265.72 397.88 280.19 397.11 293.75 406.25 C 307.32 415.38 318.98 416.19 334.00 408.00
C 338.50 404.34 344.11 401.10 349.75 396.75 C 355.39 392.40 359.90 389.12 366.00 385.00
C 367.14 383.97 368.76 383.02 370.00 382.00
C 376.18 376.06 383.44 369.38 389.00 363.00
C 406.64 339.28 418.22 316.58 429.00 290.00
C 428.92 288.55 429.07 287.14 430.00 286.00
C 427.46 285.45 425.28 286.65 423.00 287.00 Z"/>
</g>
<g fill="#2A4D04" fill-opacity="1.00" stroke="None">
<path d="
M 33.00 289.00 
C 46.07 323.81 62.30 355.98 92.25 381.75 C 122.20 407.52 156.48 425.23 195.00 432.00
C 206.45 433.03 219.32 435.71 231.00 435.00 C 242.68 434.29 255.24 434.34 265.98 431.98 C 276.71 429.61 287.38 428.77 295.00 423.00
C 232.92 398.94 178.17 357.24 122.00 321.00
C 116.23 318.48 111.16 315.40 106.00 312.00
C 100.60 309.30 93.81 307.05 88.25 304.75 C 82.68 302.46 76.57 298.70 71.02 296.98 C 65.48 295.25 56.86 292.43 52.02 290.98 C 47.19 289.52 34.54 284.63 33.00 289.00 Z"/>
</g>
<g fill="#CCD3C6" fill-opacity="0.54" stroke="None">
<path d="
M 172.00 428.00 
C 173.69 428.35 175.73 429.71 177.00 430.00
C 177.94 429.98 179.07 429.86 180.00 430.00
C 181.92 430.29 184.47 431.52 186.00 432.00
C 189.73 433.18 191.85 433.57 196.00 434.00
C 195.85 433.94 195.24 432.22 195.00 432.00
C 156.48 425.23 122.20 407.52 92.25 381.75 C 62.30 355.98 46.07 323.81 33.00 289.00
C 33.00 289.00 32.01 289.06 32.00 289.00
C 33.27 307.59 44.40 323.68 52.10 338.90 C 59.79 354.13 72.15 364.27 84.10 376.90 C 96.04 389.53 108.09 399.68 122.90 408.10 C 137.71 416.51 154.51 424.41 172.00 428.00 Z"/>
</g>
<g fill="#74845D" fill-opacity="1.00" stroke="None">
<path d="
M 395.00 295.00 
C 398.38 294.26 399.20 293.14 402.00 292.00
C 399.07 292.64 397.25 294.17 395.00 295.00 Z"/>
</g>
<g fill="#E7F5D7" fill-opacity="0.12" stroke="None">
<path d="
M 389.00 365.00 
C 380.16 375.34 366.84 383.58 359.00 394.00
C 369.76 391.47 377.68 378.59 386.10 371.10 C 394.52 363.61 401.08 352.22 408.01 343.01 C 414.94 333.80 419.85 319.97 424.00 309.00
C 412.85 328.18 403.99 347.46 389.00 365.00 Z"/>
</g>
<g fill="#74845D" fill-opacity="1.00" stroke="None">
<path d="
M 122.00 321.00 
C 116.96 317.75 111.61 314.81 106.00 312.00
C 111.16 315.40 116.23 318.48 122.00 321.00 Z"/>
</g>
<g fill="#A4AB8D" fill-opacity="1.00" stroke="None">
<path d="
M 254.00 341.00 
C 251.73 340.46 250.23 342.52 248.00 342.00
C 251.33 335.31 258.62 331.13 263.00 325.00
C 256.27 331.22 248.36 338.34 243.00 345.00
C 246.85 343.97 250.63 342.52 254.00 341.00 Z"/>
</g>
<g fill="#CA9998" fill-opacity="1.00" stroke="None">
<path d="
M 178.00 341.00 
C 174.63 338.42 171.73 335.40 168.00 333.00
C 165.97 331.69 164.06 330.33 162.00 329.00
C 167.03 333.38 172.05 337.65 178.00 341.00 Z"/>
</g>
<g fill="#74845D" fill-opacity="1.00" stroke="None">
<path d="
M 370.00 382.00 
C 376.52 376.65 383.91 369.84 389.00 363.00
C 383.44 369.38 376.18 376.06 370.00 382.00 Z"/>
</g>
<g fill="#74845D" fill-opacity="1.00" stroke="None">
<path d="
M 334.00 408.00 
C 340.18 404.63 345.93 400.60 352.00 397.00
C 356.69 393.33 361.51 389.05 366.00 385.00
C 359.90 389.12 355.39 392.40 349.75 396.75 C 344.11 401.10 338.50 404.34 334.00 408.00 Z"/>
</g>
<g fill="#E4E6D9" fill-opacity="0.09" stroke="None">
<path d="
M 351.00 400.00 
C 354.14 399.80 356.15 397.22 358.00 395.00
C 355.25 396.34 352.84 397.18 351.00 400.00 Z"/>
</g>
<g fill="#E7F5D7" fill-opacity="0.09" stroke="None">
<path d="
M 345.00 404.00 
C 347.65 402.62 348.89 403.16 350.00 400.00
C 348.11 401.17 346.65 402.78 345.00 404.00 Z"/>
</g>
<g fill="#E4E6D9" fill-opacity="0.09" stroke="None">
<path d="
M 335.00 410.00 
C 337.11 408.90 338.04 408.32 340.00 407.00
C 337.98 407.99 336.77 408.78 335.00 410.00 Z"/>
</g>
<g fill="#E7F5D7" fill-opacity="0.13" stroke="None">
<path d="
M 177.00 430.00 
C 175.73 429.71 173.69 428.35 172.00 428.00
C 173.45 428.49 173.74 430.09 177.00 430.00 Z"/>
</g>
<g fill="#E7F5D7" fill-opacity="0.12" stroke="None">
<path d="
M 186.00 432.00 
C 184.47 431.52 181.92 430.29 180.00 430.00
C 181.96 431.00 182.74 431.32 186.00 432.00 Z"/>
</g>
<g fill="#E7F5D7" fill-opacity="0.15" stroke="None">
<path d="
M 211.00 436.00 
C 209.46 435.85 206.18 435.24 204.00 435.00
C 205.98 435.40 208.37 435.95 211.00 436.00 Z"/>
</g>
</svg>